<svg id="visual" viewBox="0 0 1440 900" width="1440" height="900" xmlns="http://www.w3.org/2000/svg" xmlns:xlink="http://www.w3.org/1999/xlink" version="1.1"><rect width="1440" height="900" fill="#282c34"></rect><g><g transform="translate(810 441)"><path d="M164.8 -158.4C208.8 -120.8 236.4 -60.4 232.9 -3.5C229.4 53.3 194.7 106.7 150.7 141.5C106.7 176.4 53.3 192.7 -2.4 195.1C-58.1 197.5 -116.2 185.9 -161.1 151C-206.1 116.2 -237.9 58.1 -240.3 -2.4C-242.7 -62.8 -215.6 -125.6 -170.6 -163.3C-125.6 -200.9 -62.8 -213.3 -1.2 -212.1C60.4 -210.9 120.8 -196 164.8 -158.4Z" fill="none" stroke="#8f3a09" stroke-width="22"></path></g><g transform="translate(327 721)"><path d="M93 -94.4C116.3 -69.8 127.8 -34.9 127.9 0.1C128 35.1 116.6 70.2 93.4 94.7C70.2 119.2 35.1 133.2 1.8 131.5C-31.6 129.7 -63.1 112.2 -89.7 87.7C-116.2 63.1 -137.7 31.6 -140.2 -2.5C-142.8 -36.6 -126.3 -73.2 -99.7 -97.7C-73.2 -122.3 -36.6 -134.8 -0.8 -133.9C34.9 -133.1 69.8 -118.9 93 -94.4Z" fill="none" stroke="#8f3a09" stroke-width="22"></path></g><g transform="translate(1378 180)"><path d="M75.4 -74.1C93.6 -57.3 101.3 -28.6 100.6 -0.6C100 27.3 91 54.7 72.8 73.7C54.7 92.8 27.3 103.7 1.4 102.2C-24.5 100.8 -49 87.2 -67.4 68.1C-85.7 49 -97.9 24.5 -99.3 -1.4C-100.7 -27.3 -91.3 -54.6 -72.9 -71.4C-54.6 -88.3 -27.3 -94.7 0.7 -95.4C28.6 -96 57.3 -91 75.4 -74.1Z" stroke="#8f3a09" fill="none" stroke-width="22"></path></g><g transform="translate(107 202)"><path d="M132.8 -140.6C162.2 -103.4 169.3 -51.7 167.5 -1.8C165.8 48.2 155.2 96.4 125.8 129.6C96.4 162.9 48.2 181.2 -0.5 181.7C-49.3 182.3 -98.6 165.1 -129.2 131.8C-159.8 98.6 -171.7 49.3 -169.8 1.9C-167.8 -45.4 -152.1 -90.9 -121.5 -128C-90.9 -165.2 -45.4 -194.1 3.1 -197.2C51.7 -200.3 103.4 -177.8 132.8 -140.6Z" stroke="#8f3a09" fill="none" stroke-width="22"></path></g><g transform="translate(1356 748)"><path d="M138.9 -137.1C174.8 -103 195 -51.5 191.4 -3.6C187.9 44.4 160.6 88.8 124.7 124.6C88.8 160.5 44.4 187.7 1.2 186.5C-42 185.2 -83.9 155.5 -119 119.7C-154.2 83.9 -182.5 42 -184.7 -2.2C-186.9 -46.3 -162.9 -92.6 -127.8 -126.6C-92.6 -160.7 -46.3 -182.4 2.6 -185C51.5 -187.6 103 -171.1 138.9 -137.1Z" stroke="#8f3a09" fill="none" stroke-width="22"></path></g></g></svg>